<?xml version="1.0" encoding="UTF-8"?>
<svg id="ff_events" xmlns="http://www.w3.org/2000/svg" viewBox="0 0 256 256">
  <defs>
    <style>
      .cls-1, .cls-2, .cls-3, .cls-4, .cls-5, .cls-6 {
        fill-rule: evenodd;
      }

      .cls-1, .cls-2, .cls-7 {
        fill: #fff;
      }

      .cls-1, .cls-3, .cls-8, .cls-9, .cls-10, .cls-4, .cls-7, .cls-11, .cls-5, .cls-6 {
        stroke-width: 0px;
      }

      .cls-2 {
        stroke: #fff;
        stroke-miterlimit: 10;
        stroke-width: 4px;
      }

      .cls-3 {
        fill: #000;
      }

      .cls-8 {
        fill: #fcc447;
      }

      .cls-9 {
        fill: #113448;
      }

      .cls-10, .cls-6 {
        fill: #d8b46a;
      }

      .cls-4 {
        fill: #f4efe4;
      }

      .cls-11 {
        fill: #dba740;
      }

      .cls-5 {
        fill: #e3001b;
      }
    </style>
  </defs>
  <g id="beer">
    <g id="beer-2" data-name="beer">
      <g>
        <path class="cls-7" d="M194.44,190.95h-23.1s0-8.51,0-8.51h23.1c1.85,0,3.48-1.25,3.96-3.04l20.88-77.52c.33-1.24.08-2.54-.7-3.56-.78-1.02-1.97-1.61-3.26-1.61h-43.98s0-8.52,0-8.52h43.98c3.96,0,7.61,1.8,10.02,4.94,2.41,3.14,3.2,7.14,2.17,10.96l-20.88,77.52c-1.48,5.5-6.49,9.34-12.19,9.34Z"/>
        <path class="cls-9" d="M194.44,192.77h-24.93s0-12.16,0-12.16h24.93c1.03,0,1.94-.69,2.2-1.69l20.88-77.52c.19-.69.04-1.41-.39-1.98-.44-.57-1.1-.89-1.81-.89h-45.81s0-12.16,0-12.16h45.81c4.53,0,8.71,2.06,11.47,5.66,2.76,3.6,3.66,8.17,2.48,12.54l-20.88,77.52c-1.7,6.29-7.43,10.69-13.95,10.69ZM173.16,189.12h21.28c4.87,0,9.16-3.28,10.43-7.99l20.88-77.52c.88-3.27.2-6.69-1.86-9.37-2.06-2.69-5.18-4.23-8.57-4.23h-42.16s0,4.87,0,4.87h42.16c1.86,0,3.58.85,4.71,2.32,1.13,1.48,1.5,3.35,1.02,5.15l-20.88,77.52c-.69,2.58-3.05,4.39-5.73,4.39h-21.28s0,4.87,0,4.87Z"/>
      </g>
      <g>
        <path class="cls-1" d="M180.88,222.27h-.04s-.03-.02-.03-.03V60.18s-.02-.03-.03-.03h-105.82s-.03.02-.03.03v162.05s-.02.03-.03.03h-.04c-4.64,0-8.81,3.33-9.35,7.94-.65,5.49,3.62,10.15,8.98,10.15h106.78c5.36,0,9.63-4.66,8.98-10.15-.55-4.61-4.71-7.94-9.35-7.94Z"/>
        <path class="cls-9" d="M181.26,242.18h-106.78c-3.1,0-6.06-1.33-8.13-3.65-2.06-2.32-3.03-5.43-2.66-8.54.58-4.88,4.49-8.68,9.41-9.42V58.36s1.86-.03,1.86-.03h107.65s.03,1.86.03,1.86v160.39c4.92.74,8.83,4.54,9.41,9.42.37,3.11-.6,6.22-2.66,8.54-2.06,2.32-5.02,3.65-8.13,3.65ZM76.75,61.97v162.09s-1.86.03-1.86.03c-3.85,0-7.16,2.78-7.58,6.33-.25,2.1.38,4.12,1.77,5.68,1.37,1.54,3.34,2.43,5.4,2.43h106.78c2.06,0,4.03-.88,5.4-2.43,1.39-1.56,2.02-3.58,1.77-5.68-.42-3.55-3.73-6.33-7.54-6.33h-1.86s-.03-1.86-.03-1.86V61.97s-102.24,0-102.24,0Z"/>
      </g>
      <rect class="cls-8" x="83.28" y="63.56" width="89.17" height="158.35" rx="2.27" ry="2.27"/>
      <path class="cls-11" d="M127.87,63.56h42.31c1.25,0,2.27,1.02,2.27,2.27v153.8c0,1.25-1.02,2.27-2.27,2.27h-42.31V63.56h0Z"/>
      <g>
        <path class="cls-4" d="M178.96,49.53c-.29,0-.56.02-.84.04.55-2.16.84-4.42.84-6.74,0-15.01-12.17-27.18-27.18-27.18-12.26,0-22.62,8.12-26.01,19.27-1.43-.33-2.9-.53-4.43-.53-1.06,0-2.09.11-3.1.27-3.45-5.36-9.46-8.92-16.31-8.92-9.85,0-17.97,7.35-19.22,16.87-2.4-.98-5.02-1.53-7.78-1.53-11.37,0-20.59,9.22-20.59,20.59,0,11.37,9.22,20.59,20.59,20.59,5.65,0,10.76-2.28,14.48-5.96,1.43,6.91,7.54,12.1,14.87,12.1,8.39,0,15.19-6.8,15.19-15.19,0-.03,0-.06,0-.09.62.06,1.24.09,1.88.09,6.31,0,11.91-3.03,15.45-7.7,4.3,2.85,9.45,4.51,14.99,4.51,5.93,0,11.41-1.9,15.88-5.13,1.5,4.82,5.99,8.32,11.3,8.32,6.54,0,11.84-5.3,11.84-11.84,0-6.54-5.3-11.84-11.84-11.84Z"/>
        <path class="cls-9" d="M104.27,90.22c-7.02,0-13.26-4.36-15.8-10.7-3.88,2.96-8.6,4.56-13.55,4.56-12.36,0-22.41-10.05-22.41-22.41,0-12.36,10.05-22.41,22.41-22.41,2.17,0,4.31.31,6.37.93,2.26-9.41,10.77-16.26,20.63-16.26,6.85,0,13.18,3.26,17.18,8.78,1.94-.22,3.62-.16,5.44.12,4.18-11.43,14.92-19,27.23-19,16,0,29.01,13.01,29.01,29.01,0,1.66-.14,3.32-.42,4.95,6.88.71,12.26,6.53,12.26,13.59,0,7.53-6.13,13.66-13.66,13.66-5.21,0-9.84-2.89-12.15-7.39-4.53,2.76-9.68,4.2-15.04,4.2-5.16,0-10.17-1.36-14.59-3.94-4.07,4.59-9.82,7.21-16,7.13-.94,8.57-8.16,15.19-16.9,15.19ZM90.5,72.63l.68,3.29c1.27,6.17,6.78,10.64,13.08,10.64,7.37,0,13.36-5.99,13.36-13.36v-2.01s1.99.1,1.99.1c.61.06,1.17.09,1.7.09,5.53,0,10.63-2.54,14-6.98l1.03-1.36,1.43.94c4.15,2.75,8.99,4.2,13.98,4.2,5.35,0,10.47-1.65,14.81-4.78l2.06-1.48.75,2.42c1.31,4.21,5.15,7.03,9.56,7.03,5.52,0,10.01-4.49,10.01-10.01,0-5.52-4.49-10.01-10.01-10.01-.2,0-.4.02-.6.03l-2.53.18.51-2.44c.52-2.04.79-4.16.79-6.29,0-13.98-11.38-25.36-25.36-25.36-11.25,0-21,7.22-24.26,17.98l-.5,1.64-1.66-.39c-1.36-.32-2.71-.48-4.02-.48-.86,0-1.77.08-2.81.25l-1.18.19-.65-1c-3.26-5.06-8.78-8.08-14.78-8.08-8.79,0-16.27,6.57-17.41,15.28l-.31,2.35-2.19-.9c-2.27-.93-4.65-1.4-7.09-1.4-10.35,0-18.76,8.42-18.76,18.76,0,10.35,8.42,18.76,18.76,18.76,4.97,0,9.65-1.93,13.19-5.43l2.39-2.36Z"/>
      </g>
    </g>
  </g>
  <g id="logo">
    <path id="logo-border" class="cls-2" d="M150.36,144.76c-.1-1.77-.3-3.97-1.3-5.6-.96-1.55-1.83-3.21-2.34-5.21-.33-.9-.52-3.71-.48-4.73.11-2.12.56-5.16,1.84-6.89.35-.59.33-.58-.1-.82l-6.49-3.63h.92s0,0,0,0h1.6c.45.04.54-.16.5-.43v-.7c.06-.28-.09-.4-.4-.4h-.61s0-3.7,0-3.7v-.03c.36.45.69.76,1.12,1.04.11.02.19.01.27-.02,1.1-.52,2-1.19,2.7-2.4.21-.39.12-.44-.23-.65-1.31-.8-2.55-1.88-3.72-3.26.85-1.12-.39-2.44-1.25-1.62l-.25-.4c-.21-.34-.3-.32-.59-.19-.69.29-1.48.77-2.1,1.51-.16.12-.18.28-.04.48l.45.83-2.73,2.33v-.02c-.42-3.52-1.14-6.89-2.8-9.4-.54-.82-1.12-1.57-2.21-1.88-1.88-.51-3.8-.84-5.7-.72-1.72.43-2.34,2.24-1.71,3.82-.66.56-1.23,1.32-1.61,2.57l-1.14,2.89c-.33.72-.74,1.5-1.31,2.4-.08.46.06.89.59,1.23h-.15s-4-3.85-4-3.85l-.06-.06c-.06-1.02.44-1.78,1.35-2.02.89-.19,1.64-.48,2.24-.9.36-.22.35-.41.14-.58-1.86-.26-3.77-.06-5.75,1.35h0s-.11.06-.11.06c-.83-.05-1.41.28-1.77,1.02-.02.04-.05.07-.06.09-.02.04-.08.08-.09.1h0s0,0,0,0c0,0,0,0,0,0h0c-.73.82-2.63,1.8-3.42,1.97-.29.06-.53.12-.42.44.37,1.07.89,2.06,1.69,2.85v.12s0,0,0,0c0,.26,0,.74,0,.74.05.2.15.29.35.26h1.09s0,3.8,0,3.8h-1.11c-.15,0-.27.04-.33.14-.04.07-.06.18-.05.32v.79c.06.21.2.25.44.23h4.42s-6.71,4.18-6.71,4.18c-.43.24-.46.23-.1.82,1.24,2.29,1.86,4.94,1.13,8.39h0c-.13.63-.34,1.26-.65,2.04-.7,1.7-1.87,3.13-2.45,4.81-.74,2.14-1.14,4.39-1.18,6.73h.05c-.02,2.77.5,5.1,1.79,6.8,1.86,2.08,3.93,2.79,5.97,3.31.3,2.92,2.01,3.75,3.87,4.4,1.2.42,2.7.85,4.17,1.23,1.15.29,2.39,1.06,3.3,1.7.89.6,1.74,1.23,2.61,1.82.16.26.39.31.59.07.63-.76.82-.99,1.65-1.68,2.04-1.49,4.75-2.67,7.9-3.49,2.09-.8,3.01-2.12,3.22-3.69,2.55-.14,4.38-1.01,5.73-2.15,2.09-1.77,3.96-4.94,3.86-8.55h.02ZM111.11,111.24s0,0,0-.01h2.07s-2.06.01-2.06.01ZM115.35,107.86s.02-.05.04-.08c-.01.03-.02.05-.03.08h0ZM115.87,106.76l-.14-.15.15.15s0,0,0,0ZM118.25,111.17l-4.07.04c.51-.92.86-1.86,1.05-2.77l3.01,2.73ZM114.13,105.76s.02,0,.03-.01c-.01,0-.02,0-.03.01ZM114.31,105.69s.03,0,.04-.01c-.01,0-.03,0-.04.01ZM114.81,108.05c-.02.08-.04.17-.06.25.02-.09.04-.17.05-.26h0ZM113.68,111.08s.06-.09.08-.14c-.03.05-.06.09-.08.14ZM112.73,116.53v-1.71s.02,0,.02,0l-.02,1.71ZM140.98,109.64s.58.75.98,1.26l-2.45.02,1.48-1.28ZM124.38,112.73s0,0,0,0h1.79s0,.04,0,.06c-.15.8-.24,1.56-.36,2.71l-1.44-1.33c0-.69,0-1.29,0-1.42,0,0,0,0,0,0ZM132.65,112.58v1.49s-1.45,1.29-1.45,1.29v-.02c0-.78.05-1.78.03-2.75h0s1.39,0,1.39,0h.03ZM140.47,116.38s0-3.44,0-3.78c0,0,0,0,0,0,0,0,0,0,0,0h1.57s0,0,0,0c.01,0,0,3.8,0,3.81h-1.57s0-.01,0-.01ZM137.25,116.36s0-3.42,0-3.75c0,0,0,0,0,0,0,0,0,0,0,0h1.74s0,0,0,0c.02,0,0,3.77,0,3.78h-1.74s0-.01,0-.01ZM134.17,115.33l1.52-1.25v2.29s-1.53.05-1.53.05v-1.1ZM139.51,112.37s0-.04,0-.06c0,.02,0,.03,0,.05h0ZM139.5,112.3s0,0,0,0c0,0,0,0,0,0ZM134.19,112.72v-.16s.13,0,.13,0l-.13.16ZM130.44,121.73l.06.1h0s-.06-.1-.06-.1ZM126.52,122.01l-.05-.1c.1.16.19.31.29.47-.21,0-.36-.02-.58-.04l.33-.34ZM132.18,121.62c-.34-.39-.72-.75-1.12-1.1h0c.25-.85.37-1.73.27-2.65h0s6.11,0,6.11,0c-1.34,1.77-3.08,3.08-5.26,3.74ZM136.95,116.88s-.01,0-.02,0c0,0,.01,0,.02,0ZM139.99,114.66h0s0,.88,0,.88v1.04s0,.02,0,.03c0,0,0-.01,0-.02v-1.93ZM120.64,116.5s-.01-2.3,0-3.29l2.11,2.01c0,.7,0,1.29,0,1.29h-2.09s0-.01,0-.01ZM134.78,110.98h-3.86c0-.39.03-.87.06-1.5.96.51,2.26,1.01,3.87,1.48h-.07ZM123.83,113.65h0s-.45-.41-.45-.41l.45.41ZM117.08,116.49s0-3.35,0-3.68c0,0,0,0,0,0,0,0,0,0,0,0h1.71s0,0,0,0c.02,0,0,3.69,0,3.71h-1.71s0-.01,0-.01ZM116.79,112.29s.01,0,.02,0h.03s-.04,0-.05,0ZM115.43,112.8s0,3.69,0,3.71h-1.71s0-.01,0-.01c-.02,0,0-3.35,0-3.68,0,0,0,0,0,0,0,0,0,0,0,0h1.71s0,0,0,0ZM115.63,112.28c-.07,0-.23,0-.23,0,0,0,0,0,0,0h-1.09s1.35,0,1.35,0c.02,0,.04,0,.06.01-.03,0-.06,0-.09,0ZM115.77,112.3s.02,0,.02.01c0,0-.01,0-.02-.01ZM113.71,112.29h0c-.05,0-.14,0-.19,0-.08,0-.15.02-.2.05.03-.02.06-.04.09-.05h.3ZM113.21,112.58v-.03s0-.02.01-.04c0,.02,0,.04-.01.07ZM113.2,113.95v.48s0,0,0,0v-.48ZM113.21,116.7s.01.08.02.11c0-.03-.02-.05-.02-.08v-.03ZM113.5,117.01h-.04s-.02,0-.03,0c.02,0,.04,0,.06,0ZM113.38,116.99s0,0-.01,0c0,0,0,0,.01,0ZM116.85,117h-.05s-.02,0-.03,0c.02,0,.05,0,.08,0ZM116.73,116.98s-.04-.02-.06-.03c.02.01.04.02.06.03ZM116.64,116.92s-.02-.03-.03-.05c0,.02.02.03.03.05ZM116.58,116.82s0,0,0,0c0,0,0,0,0,0ZM123.38,115.84h0s.09.08.09.08l-.09-.08ZM125.46,118.03c0,.79.06,1.55.15,2.31l-1.58,1.51c-2.35-.98-4.11-2.23-5.62-3.82h7.04ZM136.58,110.8h0s0,0,0,0c0,0,0,0,0,0ZM126.3,112.15s0,0,0,0l.05-.55-2.12.02,2.12-.02c-.02.18-.03.36-.05.55ZM112.72,112.59s0-.04,0-.06c0,0,0,.01,0,.02v.04ZM112.72,112.61v1.83s0-1.76,0-1.76c0-.03,0-.05,0-.08ZM112.6,117.02s-.01,0-.02.01c0,0,.01,0,.02-.01ZM125.14,117.52h0s-1.03,0-1.03,0h1.03ZM126.53,109.55c-.05.46-.09.98-.14,1.55l-3.72.04c1.09-.66,2.32-1.13,3.86-1.58ZM109.64,108.84c.05.14.11.26.17.39-.06-.13-.12-.25-.18-.39,0,0,0,0,0,0ZM111.29,111.73v.28s0-.28,0-.28h0ZM111.29,112.25h0s1.19,0,1.19,0c.09,0,.16.04.21.12-.04-.07-.11-.12-.24-.12h-1.15ZM112.71,112.47s-.01-.06-.03-.08c.01.02.02.05.03.08ZM112.36,117.05s.05,0,.07,0h-1.16s0,.1,0,.1v-.11s1.09,0,1.09,0Z"/>
    <g id="logo-2" data-name="logo">
      <g>
        <path class="cls-3" d="M124.38,112.72h1.84s.01-.53.01-.53h-1.85s0,.53,0,.53Z"/>
        <path class="cls-3" d="M124.39,116.52h1.84s.01.53.01.53h-1.85s0-.53,0-.53Z"/>
        <path class="cls-3" d="M124.42,112.2s-.18,0-.25,0c-.21,0-.34.07-.35.33v4.02s.55-.02.55-.02c0,0-.01-3.8,0-3.8,0,0,.04-.53.04-.53Z"/>
        <path class="cls-3" d="M124.42,117.05s-.18,0-.25,0c-.21,0-.34-.07-.35-.33v-4.02s.55.02.55.02c0,0-.01,3.8,0,3.8,0,0,.04.53.04.53Z"/>
        <path class="cls-3" d="M126.19,117.05s.18,0,.25,0c.21,0,.34-.07.35-.33v-4.02s-.55.02-.55.02c0,0,.01,3.8,0,3.8,0,0-.04.53-.04.53Z"/>
        <path class="cls-3" d="M126.16,112.08s.19.12.26.12c.21,0,.34,4.35.34,4.35l-.54-.02s-.04-4.45-.06-4.45Z"/>
      </g>
      <path class="cls-3" d="M105.7,144.38l44.6-.33c.38,3.9-1.59,7.37-3.81,9.26-1.35,1.14-3.18,2.01-5.73,2.15-.2,1.57-1.13,2.89-3.22,3.69-3.15.82-5.86,1.99-7.9,3.49-.83.69-1.02.92-1.65,1.68-.2.24-.43.19-.59-.07-.88-.6-1.72-1.23-2.61-1.82-.91-.65-2.15-1.41-3.3-1.7-1.47-.37-2.97-.81-4.17-1.23-1.86-.65-3.57-1.48-3.87-4.4-2.04-.52-4.11-1.22-5.97-3.31-1.39-1.83-1.89-4.37-1.77-7.41Z"/>
      <path class="cls-3" d="M109.93,131.4c-.13.64-.34,1.27-.66,2.05-.7,1.7-1.87,3.13-2.45,4.81-.74,2.14-1.14,4.39-1.18,6.73l44.72-.23c-.1-1.77-.3-3.97-1.3-5.6-.96-1.55-1.83-3.21-2.34-5.21-.33-.9-.52-3.74-.48-4.75l-36.31,2.2Z"/>
      <path class="cls-3" d="M125.71,120.24l-1.68,1.6c-2.38-1-4.16-2.26-5.67-3.88l2.44,16.15,16.23-1.38,2.41-15.11-1.86.07c-1.36,1.87-3.14,3.23-5.4,3.92-.37-.41-.76-.8-1.2-1.17l-.68,1.98-3.52-.05c-.21,0-.37-.02-.59-.04l.33-.34-.81-1.76Z"/>
      <path class="cls-3" d="M108.9,122.21l6.91-4.3,2.56.02,3.18,14.26-11.63-.76c.73-3.45.11-6.1-1.13-8.39-.35-.59-.33-.58.1-.82Z"/>
      <path class="cls-3" d="M147.98,121.52l-6.8-3.81-2.67-.48-3.18,14.26,10.96-.05c-.18-1-.11-6.52,1.8-9.1.35-.59.33-.58-.1-.82Z"/>
      <path class="cls-3" d="M110.81,111.64l.36-.33c-.63-.69-1.15-1.51-1.54-2.47,1.71-.54,2.8-1.3,3.69-2.13l-.38-.36c-.72.83-2.64,1.81-3.43,1.98-.29.06-.53.12-.42.44.37,1.08.9,2.08,1.72,2.87Z"/>
      <path class="cls-3" d="M135.69,113.67l.61-.07s.13,3.46.1,3.52c-.03.06-2.42.04-2.42.04l.08-.72,1.62-.06v-2.71Z"/>
      <path class="cls-3" d="M115.05,105.15v.52c-.73-.12-1.19.1-1.5.69l-.45-.2c.38-.79,1.02-1.12,1.95-1.01Z"/>
      <path class="cls-3" d="M110.79,111.71h.49s0,.54,0,.54h1.15c.25,0,.3.19.28.44v3.88s-.49-.02-.49-.02v-3.81s-1.1,0-1.1,0c-.2.03-.3-.07-.35-.26,0,0,.01-.51,0-.76Z"/>
      <path class="cls-3" d="M131.18,112.58h1.44s3.91-.04,3.91-.04l.06-1.83-1.8.26h-4.01s.41,1.6.41,1.6Z"/>
      <path class="cls-3" d="M122.47,112.41l-2.38.27,5.33,5.09,1.41-1.37-4.35-4Z"/>
      <path class="cls-3" d="M112.73,116.55c.02.31-.02.56-.38.5h-1.1s0,.48,0,.48h14.55s-.01.5-.01.5h-14.62c-.24.01-.38-.02-.44-.24v-.79c-.02-.15,0-.25.04-.32.06-.1.18-.13.33-.13h1.11s.5,0,.5,0Z"/>
      <path class="cls-3" d="M136.92,110.41s-1.24,1.42-1.09,1.41l7.37-.06.12-.88-5.04.04-1.35-.52Z"/>
      <path class="cls-3" d="M136.77,110.54l3.07-2.62-.45-.83c-.13-.2-.12-.36.04-.48.62-.74,1.4-1.23,2.1-1.51.3-.12.39-.15.59.19l.25.4c.86-.82,2.09.5,1.25,1.62,1.17,1.38,2.41,2.46,3.72,3.26.35.21.44.26.23.65-.7,1.21-1.6,1.89-2.7,2.4-.07.03-.16.04-.27.02-.44-.28-.77-.59-1.12-1.04l.02-.66.42.03s-1.58-.63-1.6-.62c-.02,0-1.35-1.72-1.35-1.72l-1.82,1.58-2.38-.68Z"/>
      <path class="cls-3" d="M112.94,106.36s.08-.06.1-.1c.05-.07.2-.31.2-.31l5.95,5.39-.5.22-5.75-5.21Z"/>
      <path class="cls-3" d="M116.38,106.74c-.82-.06-1.3.33-1.48.87l-.08.45c-.22,1.08-.61,2.21-1.3,3.3l.5.16c.6-1.03,1.02-2.08,1.23-3.09l.1-.55c.18-.47.54-.65,1.01-.63l.02-.5Z"/>
      <path class="cls-3" d="M117.01,107.36c-.12-1.09.4-1.9,1.34-2.15.89-.19,1.64-.48,2.24-.9.36-.22.35-.41.14-.58-1.86-.26-3.77-.06-5.75,1.35l2.03,2.28Z"/>
      <path class="cls-3" d="M142.6,117.24l-.19.65-11.3-.03v-2.42s1.56-1.37,1.56-1.37l-.02-1.79,1.51-.21.03.65.37-.45,1.96-.03.4.82-2.75,2.27v1.53s8.43.37,8.43.37Z"/>
      <path class="cls-3" d="M120.54,111.33l.65-.07-4.12-3.97-2.07-2.22-.49.26,1.4,1.47.36.41,4.26,4.12Z"/>
      <path class="cls-3" d="M126.54,111.6l.1-.51-15.84.15-.02.5,15.76-.14Z"/>
      <path class="cls-3" d="M126.56,109.31c-.1.8-.16,1.82-.27,2.96-.01.1-.07.28-.1.47-.16.83-.25,1.59-.37,2.77-.15.85-.25,1.69-.36,2.52,0,.8.06,1.57.16,2.33l.19.46c.32.53.63,1.05.97,1.58l3.58.18.3-.5-.24-.37.43-.71.2-.49c.25-.83.37-1.71.27-2.64l-.06-.23-.07-2.3c0-.78.05-1.78.03-2.75l-.12-.49-.18-.62c-.03-.51,0-1.11.05-2.03l-.65-.46c-.43.57-2,.5-3.77.32Z"/>
      <path class="cls-3" d="M120.62,109.91c.57-.9.98-1.68,1.31-2.4l1.14-2.89c.38-1.26.95-2.01,1.61-2.57-.62-1.57-.01-3.39,1.71-3.82,1.89-.11,3.82.22,5.7.72,1.09.31,1.67,1.07,2.21,1.88,1.66,2.52,2.39,5.88,2.8,9.4l.19.49-2.43.25c-2.03-.6-3.58-1.23-4.57-1.89-.99.69-2.17.71-3.18.3-1.87.52-3.3,1.03-4.54,1.81l-1.22.05c-.65-.35-.82-.82-.73-1.32Z"/>
      <path class="cls-6" d="M110.66,130.27l-.15.93h.47s.12-.11.12-.11c-.08-.02-.15-.07-.14-.13l.1-.83-.4.14Z"/>
      <path class="cls-6" d="M124.4,131.08v.52s-13.98.01-13.98.01l.11-.52h13.87Z"/>
      <path class="cls-6" d="M123.69,139.32l-.08.48-16.43.03.12-.46,16.39-.04Z"/>
      <path class="cls-3" d="M110.89,131.6c-.26,1.31-.62,2.45-1.16,3.52-1.06,1.72-1.73,3.15-2.06,4.25l16.52-.05c.35-2.55.65-5.12.74-7.73h-14.05Z"/>
      <path class="cls-3" d="M145.32,131.46c.16,1.08.24,2.04.42,2.94.05.27.13.52.2.77.7,2.33,1.37,3.19,1.83,4.12l-15.51-.04c-.32-2.56-.57-5.13-.72-7.76l13.79-.03Z"/>
      <g id="Streifen-mitte">
        <path class="cls-5" d="M147.77,140.28c1.96,3.75.71,8.23,0,8.97v-8.97Z"/>
        <path class="cls-5" d="M146.57,140.21h.71s0,9.87,0,9.87l-.71.93v-10.8Z"/>
        <path class="cls-5" d="M145.08,140.21h.99s.01,11.35.01,11.35c-.31.35-.65.65-1,.9v-12.25Z"/>
        <path class="cls-5" d="M143.91,140.22h.68s0,12.55,0,12.55l-.68.37v-12.92Z"/>
        <path class="cls-5" d="M142.6,140.23h.8s0,13.12,0,13.12l-.81.27v-13.4Z"/>
        <path class="cls-5" d="M139.82,140.24h.88s0,10.39,0,10.39h-.87s-.01-10.39-.01-10.39Z"/>
        <path class="cls-5" d="M138.7,140.22h.63s0,10.42,0,10.42h-.62s0-10.42,0-10.42Z"/>
        <path class="cls-5" d="M137.19,140.25h1.01s0,13.48,0,13.48h-.99s-.01-13.48-.01-13.48Z"/>
        <path class="cls-5" d="M135.73,140.24h.97s0,13.5,0,13.5h-.61s0-2.78,0-2.78c-.02-.23-.16-.33-.37-.31v-10.41Z"/>
        <path class="cls-5" d="M134.56,140.25l.68-.02v10.42s-.29,0-.29,0l-.37-1.9-.02-8.49Z"/>
        <path class="cls-5" d="M132.92,140.26h1.15v6.34s-.59-2.61-.59-2.61l-.56-3.73Z"/>
        <path class="cls-5" d="M120.34,140.31h.97s0,10.29,0,10.29h-.97s0-10.29,0-10.29Z"/>
        <path class="cls-5" d="M119.07,140.32h.75s0,10.29,0,10.29h-.75s0-10.29,0-10.29Z"/>
        <path class="cls-5" d="M117.76,140.32h.8s0,13.43,0,13.43h-.79s0-13.43,0-13.43Z"/>
        <path class="cls-5" d="M116.48,140.31h.78s0,13.46,0,13.46h-.78s0-13.46,0-13.46Z"/>
        <path class="cls-5" d="M115.32,140.33h.68s0,10.27,0,10.27h-.68s0-10.27,0-10.27Z"/>
        <path class="cls-5" d="M113.88,140.33h.95s0,10.27,0,10.27h-.94s0-10.27,0-10.27Z"/>
        <path class="cls-5" d="M112.62,140.33h.75s0,13.14,0,13.14c-.27-.07-.5-.12-.76-.23v-12.91Z"/>
        <path class="cls-5" d="M111.26,140.33h.85s0,4.45,0,4.45v8.29c-.31-.09-.57-.19-.85-.34v-12.4Z"/>
        <path class="cls-5" d="M110.03,140.33h.73s0,12.18,0,12.18c-.25-.13-.49-.27-.73-.42v-11.77Z"/>
        <path class="cls-5" d="M108.73,140.31h.82s0,11.44,0,11.44c-.29-.27-.57-.54-.81-.85v-10.6Z"/>
        <path class="cls-5" d="M107.76,140.33h.47s0,9.82,0,9.82c-.94-2.09-1.61-4.72-.47-9.82Z"/>
        <path class="cls-5" d="M146.22,122.15v.7s.28-.54.28-.54l-.28-.16Z"/>
        <path class="cls-5" d="M145.34,121.66v3.68c.12-.43.25-.9.4-1.31l-.02-2.15-.38-.22Z"/>
        <path class="cls-5" d="M143.86,120.84l.98.55v9.22s-.98,0-.98,0v-9.76Z"/>
        <path class="cls-5" d="M142.66,120.17l.69.39v10.04s-.68,0-.68,0v-10.43Z"/>
        <path class="cls-5" d="M141.35,119.45l.81.44v10.72s-.82,0-.82,0v-11.17Z"/>
        <path class="cls-5" d="M139.79,118.76h.31s.75.41.75.41v11.45h-1.06v-11.86Z"/>
        <path class="cls-5" d="M137.21,120.23l.96-1.02v11.41s-.94,0-.94,0l-.02-10.38Z"/>
        <path class="cls-5" d="M135.78,121.39l.93-.7v9.93s-.89,0-.89,0l-.04-9.23Z"/>
        <path class="cls-5" d="M134.55,122.13l.75-.43.05,8.94h-.8s0-8.51,0-8.51Z"/>
        <path class="cls-5" d="M133.37,122.67l.7-.3v8.26s-.66,0-.66,0v-4.88s.2-.29.2-.29c.09-.24.01-.37-.21-.41l-.03-2.37Z"/>
        <path class="cls-5" d="M132.9,126.43l-.55.73-.35,1.2v2.27s.91,0,.91,0v-4.2Z"/>
        <path class="cls-5" d="M132,123.11l.9-.28v2.2s-.89,0-.89,0v-1.92Z"/>
        <path class="cls-5" d="M130.75,123.4l.77-.16-.02,1.77h-.75s0-1.61,0-1.61Z"/>
        <path class="cls-5" d="M129.52,123.6l.11,3.35h.64s0-3.45,0-3.45l-.74.1Z"/>
        <path class="cls-5" d="M128.22,123.74l.02,1.2h.8s-.02-1.27-.02-1.27l-.8.06Z"/>
        <path class="cls-5" d="M127.73,123.77l.02,1.18c-.37-.05-.72,0-.76.18l-.06,1.92h-.1s.03-3.26.03-3.26l.88-.02Z"/>
        <path class="cls-5" d="M125.65,123.66v1.4c.28-.05.42.04.45.23l.11,1.77h.13s.02-3.33.02-3.33l-.71-.08Z"/>
        <path class="cls-5" d="M123.07,125.77h.28s.66,1.08.66,1.08l.43,1.55v2.2s-1.37,0-1.37,0v-4.83Z"/>
        <path class="cls-5" d="M124.46,123.42v1.75s.7-.04.7-.04v-1.55s-.7-.16-.7-.16Z"/>
        <path class="cls-5" d="M121.83,122.34l.75.34v7.93s-.75,0-.75,0v-8.27Z"/>
        <path class="cls-5" d="M120.58,121.64l.76.45-.02,8.52h-.73s-.01-8.97-.01-8.97Z"/>
        <path class="cls-5" d="M119.2,120.65l.87.64v9.32s-.85,0-.85,0l-.02-9.95Z"/>
        <path class="cls-5" d="M117.86,119.46l.84.76v10.39s-.84,0-.84,0v-11.15Z"/>
        <path class="cls-5" d="M116.64,119.03l.12-.08h.59s0,11.66,0,11.66h-.72s0-11.58,0-11.58Z"/>
        <path class="cls-5" d="M115.37,119.8l.78-.47-.02,11.3h-.77s0-10.83,0-10.83Z"/>
        <path class="cls-5" d="M113.88,120.73l1-.63-.02,10.52h-.98s0-9.88,0-9.88Z"/>
        <path class="cls-5" d="M112.6,121.51l.79-.5v9.6s-.79,0-.79,0v-9.1Z"/>
        <path class="cls-5" d="M111.24,125.49v-3.15s.86-.54.86-.54v8.81s-.59,0-.59,0c.22-1.79.11-3.49-.27-5.12"/>
        <path class="cls-5" d="M110.31,122.91l.45-.26v1.28s-.45-1.02-.45-1.02Z"/>
        <path class="cls-5" d="M123.08,122.94v2.34s.88-.07.88-.07v-1.94s-.88-.34-.88-.34Z"/>
        <path class="cls-5" d="M138.67,118.78h.63s0,11.84,0,11.84h-.62s0-11.84,0-11.84Z"/>
        <path class="cls-5" d="M121.82,140.29h.74s.01,6.01.01,6.01l-.76,2.7v-8.71Z"/>
        <path class="cls-5" d="M123.08,140.29h.46s-.13,1.82-.13,1.82c-.09.34-.29,1.79-.37,2.07l.03-3.89Z"/>
        <path class="cls-5" d="M141.22,140.23h.88s0,13.54,0,13.54l-.94.15.04-13.69Z"/>
      </g>
      <g id="PFFW">
        <path class="cls-6" d="M111.61,132.49v.32s.49,0,.49,0c.23-.01.3.07.28.2v4.47c-.02.18-.09.29-.19.29h-.53s0,.33,0,.33h2.25s0-.32,0-.32h-.43c-.09,0-.15-.01-.21-.02-.12-.02-.13-.13-.14-.23l-.02-1.93c1.65.16,2.8-.25,2.73-1.71-.13-1.35-1.43-1.47-2.51-1.41h-1.72Z"/>
        <path class="cls-6" d="M117,132.47v.33s.51,0,.51,0c.25,0,.31.13.3.32l-.02,4.25c0,.31.01.4-.23.41h-.43s0,.32,0,.32h2.15s0-.33,0-.33h-.38c-.32,0-.37-.06-.36-.29v-1.9s.83.02.83.02c.48,0,.5.33.59.78l.26-.06-.03-1.82h-.27c-.05.45-.13.78-.5.78l-.88.02v-2.51s1.32.04,1.32.04c.71-.03.95.62,1.34,1.18l.2-.08-.3-1.43-4.11-.03Z"/>
        <path class="cls-6" d="M133.13,132.47v.33s.51,0,.51,0c.25,0,.31.13.3.32l-.02,4.25c0,.31.01.4-.23.41h-.43s0,.32,0,.32h2.15s0-.33,0-.33h-.38c-.32,0-.37-.06-.36-.29v-1.9s.83.02.83.02c.48,0,.5.33.59.78l.26-.06-.03-1.82h-.27c-.05.45-.13.78-.5.78l-.88.02v-2.51s1.32.04,1.32.04c.71-.03.95.62,1.34,1.18l.2-.08-.3-1.43-4.11-.03Z"/>
        <path class="cls-6" d="M137.96,132.48v.34c.34-.04.47,0,.52.27l1.41,5.05c.07.12.15.12.22.02l1.26-4.39,1.18,4.39c.06.09.14.1.23,0l1.48-5.05c.06-.24.21-.32.47-.3v-.32s-1.37,0-1.37,0l.02.32h.26c.14.02.19.14.17.34-.29,1.33-.62,2.62-.97,3.9l-.95-3.9c-.04-.17-.02-.3.12-.35h.33s0-.32,0-.32h-1.7s0,.32,0,.32c.44-.04.47.14.54.4-.29,1.29-.63,2.55-.98,3.81l-.97-3.83c-.06-.21-.04-.34.07-.37h.23s0-.34,0-.34h-1.57Z"/>
        <path class="cls-6" d="M147.87,139.46l.49-.36c-.35-.75-.9-1.56-1.39-2.73-.18-.43-.34-.85-.5-1.44l-.69-.39c.31,1.44,1.03,3.12,2.1,4.92Z"/>
        <path class="cls-6" d="M146.04,135.53l.46-.47c-.09-.31-.18-.66-.25-.97-.21-.92-.36-1.82-.42-2.71l-.53.03c.16,1.64.39,3.22.74,4.12Z"/>
      </g>
      <g id="Punkte">
        <ellipse class="cls-10" cx="126.69" cy="115.05" rx=".24" ry=".26"/>
        <ellipse class="cls-10" cx="130.28" cy="111.01" rx=".24" ry=".26"/>
        <ellipse class="cls-10" cx="129.08" cy="111.33" rx=".24" ry=".26"/>
        <ellipse class="cls-10" cx="128.31" cy="111.18" rx=".24" ry=".26"/>
        <ellipse class="cls-10" cx="130.36" cy="115.19" rx=".24" ry=".26"/>
        <ellipse class="cls-10" cx="127.58" cy="111.24" rx=".24" ry=".26"/>
        <ellipse class="cls-10" cx="129.67" cy="115.28" rx=".24" ry=".26"/>
        <ellipse class="cls-10" cx="129.11" cy="115.41" rx=".24" ry=".26"/>
        <ellipse class="cls-10" cx="128.42" cy="115.32" rx=".24" ry=".26"/>
        <ellipse class="cls-10" cx="127.78" cy="115.19" rx=".24" ry=".26"/>
        <ellipse class="cls-10" cx="128.47" cy="116.47" rx=".24" ry=".26"/>
        <ellipse class="cls-10" cx="129.04" cy="116.43" rx=".24" ry=".26"/>
        <ellipse class="cls-10" cx="130.47" cy="116.23" rx=".24" ry=".26"/>
        <ellipse class="cls-10" cx="129.87" cy="116.22" rx=".24" ry=".26"/>
        <ellipse class="cls-10" cx="129.34" cy="115.93" rx=".24" ry=".26"/>
        <ellipse class="cls-10" cx="128.52" cy="115.89" rx=".24" ry=".26"/>
        <ellipse class="cls-10" cx="127.94" cy="116.22" rx=".24" ry=".26"/>
        <ellipse class="cls-10" cx="128.73" cy="117.7" rx=".24" ry=".26"/>
        <ellipse class="cls-10" cx="130.63" cy="117.71" rx=".24" ry=".26"/>
        <ellipse class="cls-10" cx="130.65" cy="118.5" rx=".24" ry=".26"/>
        <ellipse class="cls-10" cx="129.94" cy="118.17" rx=".24" ry=".26"/>
        <ellipse class="cls-10" cx="129.29" cy="117.91" rx=".24" ry=".26"/>
        <ellipse class="cls-10" cx="128.85" cy="118.33" rx=".24" ry=".26"/>
        <ellipse class="cls-10" cx="128.17" cy="118.18" rx=".24" ry=".26"/>
        <ellipse class="cls-10" cx="127.54" cy="117.65" rx=".24" ry=".26"/>
        <ellipse class="cls-10" cx="126.97" cy="117.33" rx=".24" ry=".26"/>
        <ellipse class="cls-10" cx="130.68" cy="119.37" rx=".24" ry=".26"/>
        <ellipse class="cls-10" cx="130.51" cy="120.1" rx=".24" ry=".26"/>
        <ellipse class="cls-10" cx="129.76" cy="119.76" rx=".24" ry=".26"/>
        <ellipse class="cls-10" cx="129.18" cy="119.83" rx=".24" ry=".26"/>
        <ellipse class="cls-10" cx="129.89" cy="119.09" rx=".24" ry=".26"/>
        <ellipse class="cls-10" cx="129.14" cy="118.97" rx=".24" ry=".26"/>
        <ellipse class="cls-10" cx="128.28" cy="118.95" rx=".24" ry=".26"/>
        <ellipse class="cls-10" cx="126.82" cy="118.18" rx=".24" ry=".26"/>
        <ellipse class="cls-10" cx="127.5" cy="118.49" rx=".24" ry=".26"/>
        <ellipse class="cls-10" cx="126.32" cy="120.22" rx=".24" ry=".26"/>
        <ellipse class="cls-10" cx="128.2" cy="121.97" rx=".24" ry=".26"/>
        <ellipse class="cls-10" cx="127.28" cy="122.03" rx=".24" ry=".26"/>
        <ellipse class="cls-10" cx="126.91" cy="121.47" rx=".24" ry=".26"/>
        <ellipse class="cls-10" cx="127.63" cy="121.43" rx=".24" ry=".26"/>
        <ellipse class="cls-10" cx="128.28" cy="121.29" rx=".24" ry=".26"/>
        <ellipse class="cls-10" cx="128.86" cy="121.67" rx=".24" ry=".26"/>
        <ellipse class="cls-10" cx="129.44" cy="121.86" rx=".24" ry=".26"/>
        <ellipse class="cls-10" cx="144.73" cy="137.7" rx=".46" ry=".47"/>
        <ellipse class="cls-10" cx="137.63" cy="137.71" rx=".46" ry=".47"/>
        <ellipse class="cls-10" cx="121.51" cy="137.71" rx=".46" ry=".47"/>
        <ellipse class="cls-10" cx="115.81" cy="137.71" rx=".46" ry=".47"/>
        <ellipse class="cls-10" cx="129.93" cy="122.13" rx=".24" ry=".26"/>
        <ellipse class="cls-10" cx="129.92" cy="121.33" rx=".24" ry=".26"/>
        <ellipse class="cls-10" cx="130.38" cy="120.76" rx=".24" ry=".26"/>
        <ellipse class="cls-10" cx="129.81" cy="120.49" rx=".24" ry=".26"/>
        <ellipse class="cls-10" cx="127.77" cy="120.81" rx=".24" ry=".26"/>
        <ellipse class="cls-10" cx="128.9" cy="120.68" rx=".24" ry=".26"/>
        <ellipse class="cls-10" cx="126.61" cy="120.88" rx=".24" ry=".26"/>
        <ellipse class="cls-10" cx="128.26" cy="120.38" rx=".24" ry=".26"/>
        <ellipse class="cls-10" cx="127.6" cy="120.17" rx=".24" ry=".26"/>
        <ellipse class="cls-10" cx="127.05" cy="120.38" rx=".24" ry=".26"/>
        <ellipse class="cls-10" cx="126.92" cy="119.75" rx=".24" ry=".26"/>
        <ellipse class="cls-10" cx="128.31" cy="119.77" rx=".24" ry=".26"/>
        <ellipse class="cls-10" cx="127.53" cy="119.33" rx=".24" ry=".26"/>
        <ellipse class="cls-10" cx="126.89" cy="118.99" rx=".24" ry=".26"/>
        <ellipse class="cls-10" cx="126.24" cy="119.39" rx=".24" ry=".26"/>
        <ellipse class="cls-10" cx="126.2" cy="118.77" rx=".24" ry=".26"/>
        <ellipse class="cls-10" cx="126.22" cy="118.11" rx=".24" ry=".26"/>
        <ellipse class="cls-10" cx="126.24" cy="117.48" rx=".24" ry=".26"/>
        <ellipse class="cls-10" cx="126.34" cy="116.88" rx=".24" ry=".26"/>
        <ellipse class="cls-10" cx="130.6" cy="117.06" rx=".24" ry=".26"/>
        <ellipse class="cls-10" cx="129.92" cy="117.28" rx=".24" ry=".26"/>
        <ellipse class="cls-10" cx="129.22" cy="117.28" rx=".24" ry=".26"/>
        <ellipse class="cls-10" cx="128.29" cy="117.28" rx=".24" ry=".26"/>
        <ellipse class="cls-10" cx="127.72" cy="116.91" rx=".24" ry=".26"/>
        <ellipse class="cls-10" cx="127" cy="116.66" rx=".24" ry=".26"/>
        <ellipse class="cls-10" cx="127.28" cy="116.08" rx=".24" ry=".26"/>
        <ellipse class="cls-10" cx="126.53" cy="115.91" rx=".24" ry=".26"/>
        <ellipse class="cls-10" cx="127.21" cy="115.18" rx=".24" ry=".26"/>
        <ellipse class="cls-10" cx="127.17" cy="114.61" rx=".24" ry=".26"/>
        <ellipse class="cls-10" cx="129.07" cy="112.61" rx=".24" ry=".26"/>
        <ellipse class="cls-10" cx="129.26" cy="113.28" rx=".24" ry=".33"/>
        <ellipse class="cls-10" cx="130.42" cy="114.34" rx=".25" ry=".34"/>
        <ellipse class="cls-10" cx="128.19" cy="113.14" rx=".24" ry=".31"/>
        <ellipse class="cls-10" cx="127.95" cy="112.56" rx=".24" ry=".26"/>
        <ellipse class="cls-10" cx="129.77" cy="112.85" rx=".25" ry=".44"/>
        <ellipse class="cls-10" cx="130.31" cy="113.15" rx=".24" ry=".38"/>
        <ellipse class="cls-10" cx="129.3" cy="114.56" rx=".25" ry=".44"/>
        <ellipse class="cls-10" cx="128.16" cy="114.31" rx=".25" ry=".44"/>
        <ellipse class="cls-10" cx="129.79" cy="114.09" rx=".25" ry=".41"/>
        <ellipse class="cls-10" cx="128.73" cy="113.27" rx=".24" ry=".44"/>
        <ellipse class="cls-10" cx="127.56" cy="114" rx=".25" ry=".38"/>
        <ellipse class="cls-10" cx="128.74" cy="114.19" rx=".25" ry=".41"/>
        <ellipse class="cls-10" cx="126.89" cy="113.91" rx=".25" ry=".36"/>
        <ellipse class="cls-10" cx="127.25" cy="113.04" rx=".24" ry=".35"/>
        <ellipse class="cls-10" cx="129.52" cy="111.97" rx=".24" ry=".26"/>
        <ellipse class="cls-10" cx="128.86" cy="111.92" rx=".24" ry=".26"/>
        <ellipse class="cls-10" cx="130.16" cy="111.84" rx=".24" ry=".26"/>
        <ellipse class="cls-10" cx="128.26" cy="112.02" rx=".24" ry=".26"/>
        <ellipse class="cls-10" cx="127.53" cy="111.97" rx=".24" ry=".26"/>
        <ellipse class="cls-10" cx="126.95" cy="112.12" rx=".24" ry=".26"/>
        <ellipse class="cls-10" cx="126.95" cy="111.34" rx=".24" ry=".26"/>
        <ellipse class="cls-10" cx="130.29" cy="110.24" rx=".24" ry=".26"/>
        <ellipse class="cls-10" cx="129.74" cy="110.57" rx=".24" ry=".26"/>
        <ellipse class="cls-10" cx="129.05" cy="110.53" rx=".24" ry=".26"/>
        <ellipse class="cls-10" cx="128.4" cy="110.52" rx=".24" ry=".26"/>
        <ellipse class="cls-10" cx="128.45" cy="109.94" rx=".24" ry=".26"/>
        <ellipse class="cls-10" cx="130.27" cy="109.55" rx=".24" ry=".26"/>
        <ellipse class="cls-10" cx="129.17" cy="109.92" rx=".25" ry=".26"/>
        <ellipse class="cls-10" cx="127.12" cy="110.45" rx=".24" ry=".26"/>
        <ellipse class="cls-10" cx="127.75" cy="110.54" rx=".24" ry=".26"/>
        <ellipse class="cls-10" cx="127.75" cy="109.86" rx=".24" ry=".26"/>
        <ellipse class="cls-10" cx="127.16" cy="109.66" rx=".24" ry=".26"/>
      </g>
      <g id="Hut-und-Werkzeug">
        <path class="cls-6" d="M135.1,106.52c-.82-3.63-2.8-5.52-6.04-5.71-5.06.26-5.68,4.25-6.27,5.79l5.01-.02c.61-.44,1.27-.37,1.9-.04l5.39-.02"/>
        <path class="cls-6" d="M122.27,107.63l4.68.12c-.05.47.04.89.2,1.15-1.69.39-3.4,1.01-4.99,1.9-.57.1-1.09-.11-1.09-.7.11-.3,1.12-2.03,1.19-2.47Z"/>
        <path class="cls-6" d="M133.02,99.88c1.4,1.59,2.7,3.99,3.32,8.53-1.07-2.1-.9-3.31-1.73-4.62-1.57-2.47-3.39-3.32-5.65-3.42-1.05-.05-2.71.49-3.86,1.3-.54-1.63.35-2.8,1.53-2.96,2.69-.08,5.45.49,6.38,1.16Z"/>
        <path class="cls-6" d="M144.05,112.51c.18.01.35-.08.38-.17,0-.51.04-1.14-.05-1.33-.12-.18-.97-.02-1.79-.09l-1.25-1.61c-.03-.67-.28-1.21-.96-1.5l-.52-.94c.59-.63,1.21-1.05,1.86-1.29,1.51,2.33,3.32,4.13,5.41,5.43-.58.98-1.41,1.67-2.37,2.14-.23-.16-.47-.37-.69-.63Z"/>
        <path class="cls-6" d="M143.26,106.93c.16-.24.19-.49.02-.79-.15-.25-.46-.26-.63-.04l.61.83"/>
        <path class="cls-6" d="M136.66,110.63c-.33-1-.76-2.05-1.16-3.04l-4.96.14c.06.32.05.65-.06.96,1.53.78,3.2,1.43,5.13,1.96.35.05.78.07,1.06-.03Z"/>
        <path class="cls-6" d="M130.25,107.02l.14.23,4.89-.14-.04-.1h-5Z"/>
        <circle class="cls-10" cx="128.78" cy="108.09" r="1.33"/>
        <path class="cls-6" d="M118.12,104.74c1.01-.22,1.34-.36,1.77-.6-1.67-.09-3.25.35-4.57,1.3l1.18,1.23c.11-.92.88-1.72,1.62-1.93Z"/>
        <path class="cls-6" d="M109.64,108.83c1.32-.42,2.58-1.06,3.69-2.13l1.48,1.35c-.2,1.13-.6,2.19-1.21,3.17h-2.5c-.6-.65-1.09-1.45-1.46-2.39Z"/>
        <path class="cls-6" d="M116.28,107.23l4.1,3.95h-1.36s-3.67-3.31-3.67-3.31c.13-.39.41-.63.93-.64Z"/>
        <path class="cls-6" d="M114.82,105.64l1.06,1.14c-.44.13-.75.37-.93.73l-1.36-1.23c.24-.44.63-.67,1.22-.64Z"/>
        <path class="cls-6" d="M124.59,122.02l1.25-1.18.41.72-.67.7-.99-.23Z"/>
        <path class="cls-6" d="M130.86,121l-.43.71.2.31,1.01-.26c-.23-.24-.38-.45-.78-.77Z"/>
        <path class="cls-6" d="M137.05,110.96h1.64s2.13-1.82,2.13-1.82c0,0,.06-.55-.55-.88-.08-.04-3.23,2.7-3.23,2.7Z"/>
        <path class="cls-3" d="M142.83,111.89l.78-.02-.13.77v3.71s.62-.01.62-.01c.3,0,.46.12.41.4v.7c.03.28-.06.47-.51.43h-1.81s.63-5.99.63-5.99Z"/>
        <path class="cls-6" d="M122.6,107.09l-.04.13,4.58.04.11-.2-4.65.03Z"/>
        <path class="cls-6" d="M111.25,117.54v-.48s1.24,0,1.24,0c.16,0,.23-.14.23-.33l.02-2.29h.47s0,2.3,0,2.3c.01.18.13.27.25.28h2.2c.19,0,.26-.13.28-.31v-2.36s.64,0,.64,0v2.36c0,.2.07.29.22.31h2.16c.23.01.31-.12.33-.34v-2.45s.72-.02.72-.02v2.44c-.02.24.17.41.37.37h2.57c.29,0,.38-.17.36-.41v-.82s.58.53.58.53v.29c.01.3.07.37.29.38l.46.03.51.51-13.89.02Z"/>
        <path class="cls-6" d="M111.29,111.72v.52s1.19,0,1.19,0c.16,0,.25.11.25.3v2.27s.48,0,.48,0v-2.28c.04-.16.11-.23.21-.26h2.25c.19,0,.26.11.28.29v2.36s.64,0,.64,0v-2.35c0-.2.08-.29.24-.31h2.16c.23-.02.31.11.33.32v2.45s.71.02.71.02v-2.44c.03-.2.13-.32.32-.35h2.62c.29-.01.38.15.36.39v.51s.52.47.52.47l.02-.97c-.04-.31.06-.46.28-.45l2.17-.04.05-.59-15.06.12Z"/>
        <path class="cls-6" d="M143.95,111.39v.61s-.69,0-.69,0c-.15,0-.28.13-.29.32v2.28s-.47-.05-.47-.05v-2.19c-.04-.16-.09-.21-.19-.25l-2.02-.04c-.18,0-.29.11-.31.29v2.3s-.49.03-.49.03v-2.32c0-.2-.17-.27-.32-.3h-2.09c-.21-.01-.36.09-.38.3v2.42s-.55.05-.55.05v-2.39c-.03-.2-.1-.34-.28-.37h-1.83c-.27-.01-.41.09-.39.33l-.02.76-.54.44v-1.15c.02-.31-.09-.35-.28-.4h-1.74s-.17-.56-.17-.56l13.02-.11Z"/>
        <path class="cls-6" d="M131.74,117.37l1.93-1.61v.86c0,.1.02.18.1.23.03.02.08.05.13.05l1.88-.02c.19.02.31-.06.38-.26v-2.02s.56,0,.56,0v1.97c0,.22.18.33.31.3h2.11c.17,0,.3-.05.35-.25v-2.05s.48,0,.48,0v2.02c0,.2.14.27.31.29h1.87c.18,0,.29-.14.34-.36v-2.2s.46,0,.46,0l.02,2.19c.04.26.2.32.38.31l.63.02v.51s-12.26.02-12.26.02Z"/>
        <path class="cls-6" d="M109.13,122.6l7.4-4.58h1.28c.8.87,1.63,1.75,2.63,2.45l-.22.3c-.87-.62-1.68-1.31-2.39-2.06-.08-.09-.14-.18-.24-.23-.06-.03.11,0,0,0-.02,0-.74-.04-.74-.04-.07,0-.15,0-.21.01-.1.03-.16.07-.24.13,0,0-6.3,3.88-6.31,3.88-.42.2-.42.31-.17.84l-.31.2c-.14-.3-.3-.6-.48-.91Z"/>
        <path class="cls-6" d="M109.57,123.42l.35-.12c1.06,2.25,1.41,4.46,1.14,6.87l-.41.2c.27-2.48-.07-4.73-1.08-6.95Z"/>
        <g>
          <path class="cls-3" d="M113.71,112.8h1.71s.01-.51.01-.51h-1.73s0,.51,0,.51Z"/>
          <path class="cls-3" d="M113.73,116.5h1.71s.01.51.01.51h-1.73s0-.51,0-.51Z"/>
          <path class="cls-3" d="M113.75,112.29s-.16,0-.23,0c-.2,0-.31.07-.32.32v3.92s.51-.02.51-.02c0,0-.01-3.71,0-3.71,0,0,.03-.52.03-.52Z"/>
          <path class="cls-3" d="M113.76,117.01s-.16,0-.23,0c-.2,0-.31-.07-.32-.32v-3.92s.51.02.51.02c0,0-.01,3.71,0,3.71,0,0,.03.52.03.52Z"/>
          <path class="cls-3" d="M115.41,117.02s.16,0,.23,0c.2,0,.31-.07.32-.32v-3.92s-.51.02-.51.02c0,0,.01,3.71,0,3.71,0,0-.03.52-.03.52Z"/>
          <path class="cls-3" d="M115.39,112.28s.16,0,.23,0c.2,0,.31.07.32.32v3.92s-.51-.02-.51-.02c0,0,.01-3.71,0-3.71,0,0-.03-.52-.03-.52Z"/>
        </g>
        <g>
          <path class="cls-3" d="M117.07,112.79h1.71s.01-.51.01-.51h-1.73s0,.51,0,.51Z"/>
          <path class="cls-3" d="M117.08,116.5h1.71s.01.51.01.51h-1.73s0-.51,0-.51Z"/>
          <path class="cls-3" d="M117.11,112.28s-.16,0-.23,0c-.2,0-.31.07-.32.32v3.92s.51-.02.51-.02c0,0-.01-3.71,0-3.71,0,0,.03-.52.03-.52Z"/>
          <path class="cls-3" d="M117.12,117.01s-.16,0-.23,0c-.2,0-.31-.07-.32-.32v-3.92s.51.02.51.02c0,0-.01,3.71,0,3.71,0,0,.03.52.03.52Z"/>
          <path class="cls-3" d="M118.76,117.01s.16,0,.23,0c.2,0,.31-.07.32-.32v-3.92s-.51.02-.51.02c0,0,.01,3.71,0,3.71,0,0-.03.52-.03.52Z"/>
          <path class="cls-3" d="M118.75,112.28s.16,0,.23,0c.2,0,.31.07.32.32v3.92s-.51-.02-.51-.02c0,0,.01-3.71,0-3.71,0,0-.03-.52-.03-.52Z"/>
        </g>
        <g>
          <path class="cls-3" d="M120.63,112.77h2.1s.02-.52.02-.52h-2.12s0,.52,0,.52Z"/>
          <path class="cls-3" d="M120.64,116.51h2.1s.02.52.02.52h-2.12s0-.52,0-.52Z"/>
          <path class="cls-3" d="M120.68,112.25s-.2,0-.28,0c-.24,0-.39.07-.4.32v3.96s.63-.02.63-.02c0,0-.01-3.75,0-3.75,0,0,.04-.52.04-.52Z"/>
          <path class="cls-3" d="M120.68,117.03s-.2,0-.28,0c-.24,0-.39-.07-.4-.32v-3.96s.63.02.63.02c0,0-.01,3.75,0,3.75,0,0,.04.52.04.52Z"/>
          <path class="cls-3" d="M122.7,117.03s.2,0,.28,0c.24,0,.39-.07.4-.32v-3.96s-.63.02-.63.02c0,0,.01,3.75,0,3.75,0,0-.04.52-.04.52Z"/>
          <path class="cls-3" d="M122.69,112.25s.2,0,.28,0c.24,0,.39.07.4.32v3.96s-.63-.02-.63-.02c0,0,.01-3.75,0-3.75,0,0-.04-.52-.04-.52Z"/>
        </g>
        <g>
          <path class="cls-3" d="M137.24,112.59h1.74s.01-.52.01-.52h-1.76s0,.52,0,.52Z"/>
          <path class="cls-3" d="M137.25,116.37h1.74s.01.52.01.52h-1.76s0-.52,0-.52Z"/>
          <path class="cls-3" d="M137.28,112.07s-.17,0-.23,0c-.2,0-.32.07-.33.33v4s.52-.02.52-.02c0,0-.01-3.78,0-3.78,0,0,.03-.53.03-.53Z"/>
          <path class="cls-3" d="M137.29,116.89s-.17,0-.23,0c-.2,0-.32-.07-.33-.33v-4s.52.02.52.02c0,0-.01,3.78,0,3.78,0,0,.03.53.03.53Z"/>
          <path class="cls-3" d="M138.96,116.89s.17,0,.23,0c.2,0,.32-.07.33-.33v-4s-.52.02-.52.02c0,0,.01,3.78,0,3.78,0,0-.03.53-.03.53Z"/>
          <path class="cls-3" d="M138.95,112.06s.17,0,.23,0c.2,0,.32.07.33.33v4s-.52-.02-.52-.02c0,0,.01-3.78,0-3.78,0,0-.03-.53-.03-.53Z"/>
        </g>
        <g>
          <path class="cls-3" d="M140.46,112.58h1.58s.01-.53.01-.53h-1.59s0,.53,0,.53Z"/>
          <path class="cls-3" d="M140.47,116.39h1.58s.01.53.01.53h-1.59s0-.53,0-.53Z"/>
          <path class="cls-3" d="M140.49,112.06s-.15,0-.21,0c-.18,0-.29.07-.3.33v4.03s.47-.02.47-.02c0,0,0-3.81,0-3.81,0,0,.03-.53.03-.53Z"/>
          <path class="cls-3" d="M140.5,116.91s-.15,0-.21,0c-.18,0-.29-.07-.3-.33v-4.03s.47.02.47.02c0,0,0,3.81,0,3.81,0,0,.03.53.03.53Z"/>
          <path class="cls-3" d="M142.01,116.92s.15,0,.21,0c.18,0,.29-.07.3-.33v-4.03s-.47.02-.47.02c0,0,0,3.81,0,3.81,0,0-.03.53-.03.53Z"/>
          <path class="cls-3" d="M142,112.05s.15,0,.21,0c.18,0,.29.07.3.33v4.03s-.47-.02-.47-.02c0,0,0-3.81,0-3.81,0,0-.03-.53-.03-.53Z"/>
        </g>
      </g>
      <path class="cls-6" d="M131.23,115.97l3.82-3.4h.66s0,.84,0,.84l-4.45,3.75-.02-1.19ZM120.88,112.78h1.26s3.61,3.34,3.61,3.34l-.18,1.12-4.69-4.46Z"/>
      <g id="Burgmauer-und-Burg">
        <path class="cls-6" d="M125.88,161.32h2.98s-.62.54-.62.54l-.68.68-.95-.73-.72-.49Z"/>
        <path class="cls-6" d="M129.49,160.86c.58-.4,1.19-.76,1.82-1.09h-2.29s-.01,1.09-.01,1.09h.48Z"/>
        <path class="cls-6" d="M124.84,159.78v.86s.29.18.29.18h3.4s0-1.04,0-1.04h-3.7Z"/>
        <path class="cls-6" d="M132.33,159.29c1.3-.57,2.59-1.04,3.89-1.4h-4.87s0,1.39,0,1.39h.98Z"/>
        <path class="cls-6" d="M122.11,159.31c-2.35-.57-3.83-1.03-4.79-1.41h4.98s0,1.38,0,1.38l-.2.03Z"/>
        <path class="cls-6" d="M124.33,159.78v.53s-1-.53-1-.53h1Z"/>
        <path class="cls-6" d="M137.53,155.99h1.52c-.33.72-.86,1.2-1.51,1.51v-1.51Z"/>
        <path class="cls-6" d="M135.68,154.23v1.26s3.54,0,3.54,0l.07-1.26h-3.61"/>
        <path class="cls-6" d="M131.34,154.24v1.26s3.84,0,3.84,0v-1.27s-3.84,0-3.84,0Z"/>
        <path class="cls-6" d="M133.53,156v1.38s3.51,0,3.51,0v-1.38s-3.51,0-3.51,0Z"/>
        <path class="cls-6" d="M129.12,156v1.38s3.93,0,3.93,0v-1.38s-3.93,0-3.93,0Z"/>
        <path class="cls-6" d="M124.97,155.99v1.35s3.67,0,3.67,0v-1.35s-3.67,0-3.67,0Z"/>
        <path class="cls-6" d="M126.84,157.9v1.37s4.02,0,4.02,0v-1.37s-4.02,0-4.02,0Z"/>
        <path class="cls-6" d="M122.77,157.89v1.39s3.59,0,3.59,0v-1.39s-3.59,0-3.59,0Z"/>
        <path class="cls-6" d="M121.01,156v1.39s3.47,0,3.47,0v-1.39s-3.47,0-3.47,0Z"/>
        <path class="cls-6" d="M116.92,156v1.37s3.62,0,3.62,0v-1.38s-3.62,0-3.62,0Z"/>
        <path class="cls-6" d="M126.81,154.24v1.24s4.03,0,4.03,0v-1.25s-4.03,0-4.03,0Z"/>
        <path class="cls-6" d="M122.75,154.25v1.24s3.59,0,3.59,0v-1.25s-3.59,0-3.59,0Z"/>
        <path class="cls-6" d="M118.69,154.25v1.24s3.56,0,3.56,0v-1.25s-3.56,0-3.56,0Z"/>
        <path class="cls-6" d="M118.69,154.25v1.24s3.56,0,3.56,0v-1.25s-3.56,0-3.56,0Z"/>
        <path class="cls-6" d="M115.06,154.27c-.02.24-.05.57-.05,1.23h3.18s0-1.24,0-1.24c0,.01-2.5-.01-3.13,0"/>
        <path class="cls-6" d="M124.04,151.12v2.59s1.99,0,1.99,0v-2.58s-1.99-.02-1.99-.02Z"/>
        <path class="cls-6" d="M119.07,151.09v2.66s2.27,0,2.27,0v-2.65s-2.27-.02-2.27-.02Z"/>
        <path class="cls-6" d="M133.12,153.73c0-.08,0-2.83,0-2.83,0,0,0-.21.2-.27h1.11s-1.44-6.61-1.44-6.61h-9.51s-.39,2.4-.39,2.4l-1.27,4.46v2.86s1.72,0,1.72,0c0,0-.04-2.29,0-2.81,0-.26.21-.3.21-.3h2.54s.24,0,.24.3c.01.52,0,2.8,0,2.8l2.13-.02v-2.8s0-.28.27-.29h2.52c.21.11.2.27.2.27,0,0,0,2.77.01,2.81l1.45.02Z"/>
        <path class="cls-6" d="M131.66,150.93v2.8s1.46,0,1.46,0v-2.85s-1.46.05-1.46.05Z"/>
        <path class="cls-6" d="M123.72,142.61l-.02.13h9.09s-.01-.14-.01-.14h-9.06Z"/>
        <path class="cls-6" d="M123.6,143.25l-.04.24h9.34s-.03-.24-.03-.24h-9.26Z"/>
        <path class="cls-6" d="M138.7,151.14h1.98s-.02,2.57-.02,2.57h-1.97s0-2.57,0-2.57Z"/>
        <path class="cls-6" d="M133.64,151.14h1.98s-.02,2.57-.02,2.57h-1.97s0-2.57,0-2.57Z"/>
        <path class="cls-6" d="M129.17,151.15h1.98s-.02,2.57-.02,2.57h-1.97s0-2.57,0-2.57Z"/>
        <path class="cls-6" d="M123.93,125.73l1.68-.16.12,1.83s.1.19.23.18c.28-.02,1.21.01,1.26-.01.06-.03.2-.12.2-.23,0-.36.04-1.9.04-1.9h1.62s.06,1.88.06,1.88c0,0-.01.21.18.22.4.02,1.19.04,1.31,0,.08-.02.15-.21.15-.21v-1.84s2.13.04,2.13.04l-1.02,1.41-.02.07-.33,1.09h-6.64s-.38-1.4-.38-1.4l-.58-.98Z"/>
        <path class="cls-6" d="M131.5,128.63c-.07,5.88.75,9.15,1.18,13.47l-8.81.02c.41-4.41,1.19-8.25,1.02-13.51l6.62.03Z"/>
        <path class="cls-6" d="M113.87,151.09v2.5s.79.17.79.17l1.33-.02-.02-2.65h-2.1Z"/>
        <path class="cls-6" d="M116.41,157.39h-.17c-.29-.12-.81-.63-1.1-1.39h1.27s0,1.39,0,1.39"/>
      </g>
      <g id="Fenster">
        <path class="cls-3" d="M126.8,150.1h2.46s0-3.12,0-3.12c0,0-.04-1.03-1.17-1.02-1.25,0-1.28.97-1.28.97v3.17Z"/>
        <path class="cls-3" d="M126.05,138.45h1.8s0-2.4,0-2.4c0,0-.03-.79-.86-.78-.92,0-.93.74-.93.74v2.44Z"/>
        <path class="cls-3" d="M127.39,133.66h2.05s0-2.69,0-2.69c0,0-.03-.89-.98-.88-1.05,0-1.06.83-1.06.83v2.74Z"/>
        <path class="cls-3" d="M129.04,138.45h1.8s0-2.4,0-2.4c0,0-.03-.79-.86-.78-.92,0-.93.74-.93.74v2.44Z"/>
        <path class="cls-3" d="M113.1,132.81v2.48c1.15.24,2.02-.1,1.94-1.34-.1-.93-.88-1.33-1.94-1.14Z"/>
      </g>
      <path class="cls-6" d="M108.39,152.05l.37-.36c1.12,1.11,2.98,1.98,5.78,2.55l-.03.9-.43.16v-.05s-.1-.02-.1-.06c.02-.44-.11-.57-.49-.65-2.5-.62-4.16-1.49-5.1-2.49Z"/>
      <path class="cls-6" d="M110.44,131.5h.47c-.3,1.59-.78,3.01-1.4,3.98l-.54-.31c.15-.23.29-.51.43-.77.44-.86.77-1.82,1.04-2.9Z"/>
      <path class="cls-6" d="M108.99,135.15l.53.32c-.86,1.4-1.52,2.84-1.99,4.31l-.64-.05c.43-1.62,1.14-3.14,2.09-4.58Z"/>
      <path class="cls-6" d="M106.9,139.72c-.74,2.6-.93,5.22-.57,7.62l.51-.08c-.37-2.24-.07-4.59.41-7.02.05-.26.12-.38.33-.4l-.08-.32-.61.21Z"/>
      <path class="cls-6" d="M106.33,147.3l.49-.17c.41,2.38,1.11,3.84,1.96,4.58l-.36.37c-.97-.83-1.65-2.32-2.09-4.78Z"/>
      <path class="cls-6" d="M113.98,155.16l.53-.06c.06,2.19,1.68,2.89,2.11,3.04.11.04.14.04.04.02l-.3.44c-1.35-.49-2.36-1.77-2.38-3.44Z"/>
      <path class="cls-6" d="M116.35,158.6l.29-.45c1.29.55,3.07,1.09,4.99,1.51,1.86.6,3.21,1.48,4.86,2.7l-.13.55c-2.01-1.47-3.6-2.36-4.95-2.75-1.81-.39-3.62-.95-5.06-1.55Z"/>
      <path class="cls-6" d="M127.58,163.08c.13-.11.49-.41.8-.68l.26.47c-.38.36-.63.63-.96,1-.44-.34-.83-.64-1.33-.97l.11-.56s.95.68,1.13.75Z"/>
      <path class="cls-6" d="M128.25,162.52l.31.43c.68-.63,1.33-1.14,1.95-1.55l-.05-.57c-.83.49-1.55,1.08-2.22,1.69Z"/>
      <path class="cls-6" d="M130.09,161.06l.41.34c1.56-.95,3.42-1.74,5.51-2.38l.12-.57c-2.22.65-4.42,1.55-6.04,2.61Z"/>
      <path class="cls-6" d="M135.76,158.56l.21.47c.7-.19,1.35-.36,1.68-.48l.52-.85c-.03.06-.21.13-.36.22-.1.06-1.22.39-2.06.64Z"/>
      <path class="cls-6" d="M137.38,158.09l.25.47c1.36-.53,2.4-1.58,2.61-3.13l-.51-.03c-.2,1.14-.8,2.1-2.34,2.68Z"/>
      <path class="cls-6" d="M139.7,155.54l.08-1.06,1.85-.13-.29.54-.68.05c-.35,0-.43.1-.44.5l-.53.09Z"/>
      <path class="cls-6" d="M141.14,154.4v.51c4.22-.43,6.02-3.02,6.1-3.15l-.05-.73c-1.67,2.1-3.36,3.01-6.06,3.37Z"/>
      <path class="cls-6" d="M146.67,151.69l.55.11c.76-.88,1.59-2.07,1.91-2.99l-.33-.61c-.24.83-.9,1.99-2.13,3.49Z"/>
      <path class="cls-6" d="M148.5,148.98h.57c.56-1.48.85-3.01.76-4.62l-.53-.51c.14,1.47-.17,3.69-.8,5.13Z"/>
      <path class="cls-6" d="M149.34,144.57l.49-.15c-.03-1.37-.31-2.77-.92-4.16l-.6-.05c.58,1.24.96,2.67,1.03,4.36Z"/>
      <path class="cls-6" d="M148.51,140.64l.41-.38-.58-1.19-.57.2-.26.43h.33c.22-.01.29.11.37.28l.3.65Z"/>
      <path class="cls-6" d="M132.76,139.27l.08.48,15.04-.03v-.43s-15.12-.01-15.12-.01Z"/>
      <path class="cls-6" d="M131.99,131.12l.02.35h13.43s-.31-.36-.31-.36h-13.14Z"/>
      <path class="cls-6" d="M145.35,131.53l-.27-.41c.22-.01.35-.12.33-.41-.04-.57-.05-1.15,0-1.76l.37-.05c-.01.92-.03,1.69.06,2.53l-.49.11Z"/>
      <path class="cls-6" d="M145.39,129.11l.38.06c.08-2.49.59-4.77,1.66-6.7l-.44-.02c-1.16,2.11-1.53,4.36-1.6,6.66Z"/>
      <path class="cls-6" d="M146.92,122.57h.44s.36-.6.36-.6l-1.62-.91-.17.36.9.5c.21.1.32.24.19.45l-.1.19Z"/>
      <path class="cls-6" d="M146,121.46l.2-.34-5.43-3.01-.24.32,5.47,3.03Z"/>
      <path class="cls-6" d="M140.58,118.46l.2-.34-.45-.24h-2.29s-.49.66-.49.66l.29.27.27-.35c.09-.13.11-.16.33-.19h1.65c.15,0,.19.04.28.08l.2.11Z"/>
      <path class="cls-6" d="M137.68,118.38l.17.43c-1.44,1.74-2.92,2.57-3.83,3.04l-.06-.4c1.32-.67,2.6-1.62,3.72-3.06Z"/>
      <path class="cls-6" d="M134.14,121.35l.07.4c-.91.46-2.08.92-4.07,1.26l.3-.45c1.5-.29,2.74-.69,3.71-1.21Z"/>
      <path class="cls-6" d="M130.45,122.56l.27.34c-.08.01-.15.03-.23.05-1.46.26-2.8.37-3.79.33l.26-.37c.92.02,2.68-.15,3.49-.35Z"/>
      <path class="cls-6" d="M126.96,123.28l.07-.38c-1.08-.05-2.09-.23-2.98-.53l-.17.35c.92.29,1.95.51,3.08.56Z"/>
      <path class="cls-6" d="M120.11,120.69l.28-.27c1.29.89,2.52,1.52,3.77,1.98l-.26.32c-1.41-.51-2.58-1.19-3.79-2.04Z"/>
    </g>
  </g>
</svg>