<?xml version="1.0" standalone="no"?>
<!DOCTYPE svg PUBLIC "-//W3C//DTD SVG 20010904//EN"
 "http://www.w3.org/TR/2001/REC-SVG-20010904/DTD/svg10.dtd">
<svg version="1.0" xmlns="http://www.w3.org/2000/svg"
 width="700.000000pt" height="700.000000pt" viewBox="0 0 700.000000 700.000000"
 preserveAspectRatio="xMidYMid meet">
<metadata>
Created by potrace 1.14, written by Peter Selinger 2001-2017
</metadata>
<g transform="translate(0.000000,700.000000) scale(0.100000,-0.100000)"
fill="#000000" stroke="none">
<path d="M4030 6613 c-263 -44 -489 -213 -595 -443 l-29 -65 -74 2 -74 2 -51
54 c-178 186 -442 233 -676 121 -130 -63 -263 -218 -300 -351 -5 -15 -12 -27
-17 -26 -74 13 -111 17 -174 17 -331 -3 -604 -278 -603 -609 1 -312 239 -576
555 -614 3 -1 6 -840 6 -1866 l0 -1865 -44 -11 c-24 -6 -49 -17 -55 -25 -6 -8
-17 -14 -23 -14 -18 0 -82 -70 -106 -117 -31 -61 -37 -147 -14 -219 14 -46 31
-72 74 -115 99 -100 -55 -91 1664 -91 1614 0 1553 -2 1626 51 88 64 121 124
128 232 4 67 1 83 -21 130 -41 86 -98 137 -183 165 l-50 16 0 373 c1 205 3
376 6 379 3 3 93 6 199 6 170 1 200 4 250 23 95 35 170 101 216 189 14 26 92
298 176 610 84 310 170 628 191 708 85 313 169 626 172 640 2 8 20 76 40 150
39 147 44 208 27 285 -34 144 -161 267 -302 293 -26 5 -253 9 -505 10 -253 0
-461 1 -464 1 -3 1 -6 73 -6 160 l-1 159 40 18 c209 94 291 321 188 522 -45
88 -158 172 -253 188 -34 6 -36 8 -32 38 15 104 3 238 -31 344 -108 331 -414
555 -754 551 -53 -1 -107 -4 -121 -6z m1904 -2328 c9 -11 16 -26 16 -33 0 -14
-31 -134 -175 -667 -46 -170 -93 -344 -104 -385 -113 -426 -292 -1081 -300
-1102 -13 -35 -37 -39 -226 -36 l-150 3 -1 1115 c0 613 0 1117 2 1120 1 3 210
6 463 5 448 0 461 -1 475 -20z"/>
</g>
</svg>
