<?xml version="1.0" encoding="UTF-8"?>
<svg id="ff_events" xmlns="http://www.w3.org/2000/svg" viewBox="0 0 256 256">
  <defs>
    <style>
      .cls-1, .cls-2, .cls-3, .cls-4, .cls-5, .cls-6 {
        stroke-width: 0px;
      }

      .cls-1, .cls-4 {
        fill-rule: evenodd;
      }

      .cls-1, .cls-5 {
        fill: #fff;
      }

      .cls-2 {
        fill: #fcc447;
      }

      .cls-3 {
        fill: #113448;
      }

      .cls-4 {
        fill: #f4efe4;
      }

      .cls-6 {
        fill: #dba740;
      }
    </style>
  </defs>
  <g id="beer">
    <g id="beer-2" data-name="beer">
      <g>
        <path class="cls-5" d="M194.44,190.95h-23.1s0-8.51,0-8.51h23.1c1.85,0,3.48-1.25,3.96-3.04l20.88-77.52c.33-1.24.08-2.54-.7-3.56-.78-1.02-1.97-1.61-3.26-1.61h-43.98s0-8.52,0-8.52h43.98c3.96,0,7.61,1.8,10.02,4.94,2.41,3.14,3.2,7.14,2.17,10.96l-20.88,77.52c-1.48,5.5-6.49,9.34-12.19,9.34Z"/>
        <path class="cls-3" d="M194.44,192.77h-24.93s0-12.16,0-12.16h24.93c1.03,0,1.94-.69,2.2-1.69l20.88-77.52c.19-.69.04-1.41-.39-1.98-.44-.57-1.1-.89-1.81-.89h-45.81s0-12.16,0-12.16h45.81c4.53,0,8.71,2.06,11.47,5.66,2.76,3.6,3.66,8.17,2.48,12.54l-20.88,77.52c-1.7,6.29-7.43,10.69-13.95,10.69ZM173.16,189.12h21.28c4.87,0,9.16-3.28,10.43-7.99l20.88-77.52c.88-3.27.2-6.69-1.86-9.37-2.06-2.69-5.18-4.23-8.57-4.23h-42.16s0,4.87,0,4.87h42.16c1.86,0,3.58.85,4.71,2.32,1.13,1.48,1.5,3.35,1.02,5.15l-20.88,77.52c-.69,2.58-3.05,4.39-5.73,4.39h-21.28s0,4.87,0,4.87Z"/>
      </g>
      <g>
        <path class="cls-1" d="M180.88,222.27h-.04s-.03-.02-.03-.03V60.18s-.02-.03-.03-.03h-105.82s-.03.02-.03.03v162.05s-.02.03-.03.03h-.04c-4.64,0-8.81,3.33-9.35,7.94-.65,5.49,3.62,10.15,8.98,10.15h106.78c5.36,0,9.63-4.66,8.98-10.15-.55-4.61-4.71-7.94-9.35-7.94Z"/>
        <path class="cls-3" d="M181.26,242.18h-106.78c-3.1,0-6.06-1.33-8.13-3.65-2.06-2.32-3.03-5.43-2.66-8.54.58-4.88,4.49-8.68,9.41-9.42V58.36s1.86-.03,1.86-.03h107.65s.03,1.86.03,1.86v160.39c4.92.74,8.83,4.54,9.41,9.42.37,3.11-.6,6.22-2.66,8.54-2.06,2.32-5.02,3.65-8.13,3.65ZM76.75,61.97v162.09s-1.86.03-1.86.03c-3.85,0-7.16,2.78-7.58,6.33-.25,2.1.38,4.12,1.77,5.68,1.37,1.54,3.34,2.43,5.4,2.43h106.78c2.06,0,4.03-.88,5.4-2.43,1.39-1.56,2.02-3.58,1.77-5.68-.42-3.55-3.73-6.33-7.54-6.33h-1.86s-.03-1.86-.03-1.86V61.97s-102.24,0-102.24,0Z"/>
      </g>
      <rect class="cls-2" x="83.28" y="63.56" width="89.17" height="158.35" rx="2.27" ry="2.27"/>
      <path class="cls-6" d="M127.87,63.56h42.31c1.25,0,2.27,1.02,2.27,2.27v153.8c0,1.25-1.02,2.27-2.27,2.27h-42.31V63.56h0Z"/>
      <g>
        <path class="cls-4" d="M178.96,49.53c-.29,0-.56.02-.84.04.55-2.16.84-4.42.84-6.74,0-15.01-12.17-27.18-27.18-27.18-12.26,0-22.62,8.12-26.01,19.27-1.43-.33-2.9-.53-4.43-.53-1.06,0-2.09.11-3.1.27-3.45-5.36-9.46-8.92-16.31-8.92-9.85,0-17.97,7.35-19.22,16.87-2.4-.98-5.02-1.53-7.78-1.53-11.37,0-20.59,9.22-20.59,20.59,0,11.37,9.22,20.59,20.59,20.59,5.65,0,10.76-2.28,14.48-5.96,1.43,6.91,7.54,12.1,14.87,12.1,8.39,0,15.19-6.8,15.19-15.19,0-.03,0-.06,0-.09.62.06,1.24.09,1.88.09,6.31,0,11.91-3.03,15.45-7.7,4.3,2.85,9.45,4.51,14.99,4.51,5.93,0,11.41-1.9,15.88-5.13,1.5,4.82,5.99,8.32,11.3,8.32,6.54,0,11.84-5.3,11.84-11.84,0-6.54-5.3-11.84-11.84-11.84Z"/>
        <path class="cls-3" d="M104.27,90.22c-7.02,0-13.26-4.36-15.8-10.7-3.88,2.96-8.6,4.56-13.55,4.56-12.36,0-22.41-10.05-22.41-22.41,0-12.36,10.05-22.41,22.41-22.41,2.17,0,4.31.31,6.37.93,2.26-9.41,10.77-16.26,20.63-16.26,6.85,0,13.18,3.26,17.18,8.78,1.94-.22,3.62-.16,5.44.12,4.18-11.43,14.92-19,27.23-19,16,0,29.01,13.01,29.01,29.01,0,1.66-.14,3.32-.42,4.95,6.88.71,12.26,6.53,12.26,13.59,0,7.53-6.13,13.66-13.66,13.66-5.21,0-9.84-2.89-12.15-7.39-4.53,2.76-9.68,4.2-15.04,4.2-5.16,0-10.17-1.36-14.59-3.94-4.07,4.59-9.82,7.21-16,7.13-.94,8.57-8.16,15.19-16.9,15.19ZM90.5,72.63l.68,3.29c1.27,6.17,6.78,10.64,13.08,10.64,7.37,0,13.36-5.99,13.36-13.36v-2.01s1.99.1,1.99.1c.61.06,1.17.09,1.7.09,5.53,0,10.63-2.54,14-6.98l1.03-1.36,1.43.94c4.15,2.75,8.99,4.2,13.98,4.2,5.35,0,10.47-1.65,14.81-4.78l2.06-1.48.75,2.42c1.31,4.21,5.15,7.03,9.56,7.03,5.52,0,10.01-4.49,10.01-10.01,0-5.52-4.49-10.01-10.01-10.01-.2,0-.4.02-.6.03l-2.53.18.51-2.44c.52-2.04.79-4.16.79-6.29,0-13.98-11.38-25.36-25.36-25.36-11.25,0-21,7.22-24.26,17.98l-.5,1.64-1.66-.39c-1.36-.32-2.71-.48-4.02-.48-.86,0-1.77.08-2.81.25l-1.18.19-.65-1c-3.26-5.06-8.78-8.08-14.78-8.08-8.79,0-16.27,6.57-17.41,15.28l-.31,2.35-2.19-.9c-2.27-.93-4.65-1.4-7.09-1.4-10.35,0-18.76,8.42-18.76,18.76,0,10.35,8.42,18.76,18.76,18.76,4.97,0,9.65-1.93,13.19-5.43l2.39-2.36Z"/>
      </g>
    </g>
  </g>
</svg>